# xmcd
#
# Track frame offsets:
#	150
#	20010
#	45260
#	70057
#	97537
#	130550
#	155210
#	181847
#	206287
#	232595
#
# Disc length: 3409 seconds
#
# Revision: 1
# Processed by: cddbd v1.5.1PL0 Copyright (c) Steve Scherf et al.
# Submitted via: CDex 1.50Beta5
#
DISCID=690d4f0a
DTITLE=さまざまなアーティスト - Slow Grooves
DYEAR=1900
DGENRE=Pop
TTITLE0=イット・マスト・ハヴ・ビーン・ラヴ
TTITLE1=ビコーズ・アイ・ラブ・ユー
TTITLE2=レディ・イン・レッド
TTITLE3=ラヴィン・ユー
TTITLE4=アンチェインド・メロディー
TTITLE5=ケアレス・ウイスパー
TTITLE6=ウーマン・イン・ラヴ
TTITLE7=ウインド・オブ・チェンジ
TTITLE8=アイ・ライク・ショパン
TTITLE9=スルー・ザ・ファイアー
EXTD=
EXTT0=
EXTT1=
EXTT2=
EXTT3=
EXTT4=
EXTT5=
EXTT6=
EXTT7=
EXTT8=
EXTT9=
PLAYORDER=
